<svg width="640" height="160" viewBox="0 0 640 160" fill="none" xmlns="http://www.w3.org/2000/svg" role="img" aria-label="Secara wordmark">
  <defs>
    <linearGradient id="mark-gradient" x1="22" y1="16" x2="138" y2="138" gradientUnits="userSpaceOnUse">
      <stop offset="0" stop-color="#22D3EE"/>
      <stop offset="0.42" stop-color="#3B82F6"/>
      <stop offset="1" stop-color="#A855F7"/>
    </linearGradient>
    <linearGradient id="word-ink" x1="176" y1="30" x2="500" y2="122" gradientUnits="userSpaceOnUse">
      <stop offset="0" stop-color="#13211A"/>
      <stop offset="1" stop-color="#263D32"/>
    </linearGradient>
    <filter id="logo-glow" x="0" y="0" width="180" height="160" filterUnits="userSpaceOnUse" color-interpolation-filters="sRGB">
      <feDropShadow dx="0" dy="4" stdDeviation="5" flood-color="#3B82F6" flood-opacity="0.25"/>
      <feDropShadow dx="0" dy="0" stdDeviation="2.5" flood-color="#A855F7" flood-opacity="0.22"/>
    </filter>
  </defs>

  <g transform="translate(10 10)" filter="url(#logo-glow)" stroke="url(#mark-gradient)" stroke-width="8" stroke-linecap="round" stroke-linejoin="round">
    <path d="M70 12C53.8 23.6 33.5 27.1 13.2 25.7V72.6C13.2 104.3 36.6 131.3 70 143.2C103.4 131.3 126.8 104.3 126.8 72.6V25.7C106.5 27.1 86.2 23.6 70 12Z"/>
    <path d="M20.8 77.6C35.6 59.6 52.3 50.4 70 50.4C87.7 50.4 104.4 59.6 119.2 77.6C104.4 95.6 87.7 104.8 70 104.8C52.3 104.8 35.6 95.6 20.8 77.6Z"/>
    <circle cx="70" cy="77.6" r="22.4"/>
    <circle cx="70" cy="77.6" r="9.4" fill="url(#mark-gradient)" stroke="none"/>
    <path d="M89.2 96.8L114 121.6"/>
    <rect x="108.5" y="114.8" width="24" height="10" rx="5" transform="rotate(45 108.5 114.8)" fill="url(#mark-gradient)" stroke="none"/>
  </g>

  <g transform="translate(178 106)" fill="url(#word-ink)">
    <text x="0" y="0" font-family="'Space Grotesk', 'Segoe UI', sans-serif" font-size="74" font-weight="700" letter-spacing="3">SECAR</text>
  </g>

  <g transform="translate(518 106)" stroke="url(#word-ink)" stroke-width="11" stroke-linecap="round" fill="none">
    <path d="M0 0L26 -63"/>
    <path d="M52 0L26 -63"/>
  </g>
</svg>
