<svg width="512" height="512" viewBox="0 0 512 512" fill="none" xmlns="http://www.w3.org/2000/svg" role="img" aria-label="Secara logo monochrome">
  <defs>
    <linearGradient id="mono-ink" x1="128" y1="104" x2="392" y2="392" gradientUnits="userSpaceOnUse">
      <stop offset="0" stop-color="#0F172A"/>
      <stop offset="1" stop-color="#1E293B"/>
    </linearGradient>
    <radialGradient id="mono-glow" cx="0" cy="0" r="1" gradientUnits="userSpaceOnUse" gradientTransform="translate(256 260) rotate(90) scale(176)">
      <stop offset="0" stop-color="#334155" stop-opacity="0.18"/>
      <stop offset="1" stop-color="#334155" stop-opacity="0"/>
    </radialGradient>
  </defs>

  <circle cx="256" cy="256" r="172" fill="url(#mono-glow)"/>

  <g stroke="url(#mono-ink)" stroke-width="20" stroke-linecap="round" stroke-linejoin="round">
    <path d="M256 92C215.5 121 164.8 129.8 114 126.2V243.4C114 322.7 172.5 390.2 256 420C339.5 390.2 398 322.7 398 243.4V126.2C347.2 129.8 296.5 121 256 92Z"/>
    <path d="M133 256C170 211 211.8 188 256 188C300.2 188 342 211 379 256C342 301 300.2 324 256 324C211.8 324 170 301 133 256Z"/>
    <circle cx="256" cy="256" r="56"/>

    <circle cx="256" cy="256" r="24" fill="#0F172A" stroke="none"/>
    <path d="M304 304L366 366"/>
    <rect x="350" y="350" width="70" height="30" rx="15" transform="rotate(45 350 350)" fill="#0F172A" stroke="none"/>

    <path d="M280 227C275.2 220.6 267.6 216 259 216" stroke-width="13"/>
  </g>
</svg>
