<svg width="512" height="512" viewBox="0 0 512 512" fill="none" xmlns="http://www.w3.org/2000/svg" role="img" aria-label="Secara logo">
  <defs>
    <linearGradient id="secara-main" x1="104" y1="88" x2="416" y2="416" gradientUnits="userSpaceOnUse">
      <stop offset="0" stop-color="#22D3EE"/>
      <stop offset="0.42" stop-color="#3B82F6"/>
      <stop offset="0.76" stop-color="#6366F1"/>
      <stop offset="1" stop-color="#A855F7"/>
    </linearGradient>

    <linearGradient id="secara-highlight" x1="154" y1="132" x2="332" y2="300" gradientUnits="userSpaceOnUse">
      <stop offset="0" stop-color="#FFFFFF" stop-opacity="0.92"/>
      <stop offset="1" stop-color="#FFFFFF" stop-opacity="0"/>
    </linearGradient>

    <radialGradient id="lens-core" cx="0" cy="0" r="1" gradientUnits="userSpaceOnUse" gradientTransform="translate(250 246) rotate(56) scale(58)">
      <stop offset="0" stop-color="#F0FDFF"/>
      <stop offset="0.55" stop-color="#BEE4FF" stop-opacity="0.92"/>
      <stop offset="1" stop-color="#93C5FD" stop-opacity="0.25"/>
    </radialGradient>

    <radialGradient id="aura" cx="0" cy="0" r="1" gradientUnits="userSpaceOnUse" gradientTransform="translate(256 260) rotate(90) scale(188)">
      <stop offset="0" stop-color="#2563EB" stop-opacity="0.28"/>
      <stop offset="0.58" stop-color="#4F46E5" stop-opacity="0.16"/>
      <stop offset="1" stop-color="#4F46E5" stop-opacity="0"/>
    </radialGradient>

    <filter id="cinematic-glow" x="58" y="48" width="396" height="430" filterUnits="userSpaceOnUse" color-interpolation-filters="sRGB">
      <feDropShadow dx="0" dy="10" stdDeviation="12" flood-color="#0F172A" flood-opacity="0.35"/>
      <feDropShadow dx="0" dy="0" stdDeviation="7" flood-color="#3B82F6" flood-opacity="0.42"/>
      <feDropShadow dx="0" dy="0" stdDeviation="2.6" flood-color="#A855F7" flood-opacity="0.38"/>
    </filter>
  </defs>

  <circle cx="256" cy="256" r="176" fill="url(#aura)"/>

  <g filter="url(#cinematic-glow)" stroke="url(#secara-main)" stroke-width="20" stroke-linecap="round" stroke-linejoin="round">
    <path d="M256 92C215.5 121 164.8 129.8 114 126.2V243.4C114 322.7 172.5 390.2 256 420C339.5 390.2 398 322.7 398 243.4V126.2C347.2 129.8 296.5 121 256 92Z"/>
    <path d="M133 256C170 211 211.8 188 256 188C300.2 188 342 211 379 256C342 301 300.2 324 256 324C211.8 324 170 301 133 256Z"/>
    <circle cx="256" cy="256" r="56"/>

    <circle cx="256" cy="256" r="24" fill="url(#lens-core)" stroke="none"/>
    <circle cx="267" cy="244" r="7" fill="#FFFFFF" fill-opacity="0.8" stroke="none"/>

    <path d="M304 304L366 366"/>
    <rect x="350" y="350" width="70" height="30" rx="15" transform="rotate(45 350 350)" fill="url(#secara-main)" stroke="none"/>

    <path d="M280 227C275.2 220.6 267.6 216 259 216" stroke-width="13"/>
  </g>

  <g stroke="url(#secara-highlight)" stroke-linecap="round" fill="none" opacity="0.9">
    <path d="M169 145C198 141 227 131 256 112" stroke-width="9"/>
    <path d="M178 239C196 219 223 204 256 204" stroke-width="7"/>
    <path d="M314 314L347 347" stroke-width="8"/>
  </g>

  <path d="M352 157L358 171L372 177L358 183L352 197L346 183L332 177L346 171L352 157Z" fill="#E0F2FE" fill-opacity="0.7"/>
</svg>
